<svg width="180" height="180" viewBox="0 0 180 180" fill="none" xmlns="http://www.w3.org/2000/svg">
  <rect width="180" height="180" rx="37" fill="#0a0a0a"/>
  <g fill="#ffffff">
    <!-- Logo L40S - diseño limpio y moderno -->
    <!-- L -->
    <rect x="25" y="35" width="10" height="75" rx="2"/>
    <rect x="25" y="95" width="40" height="10" rx="2"/>
    
    <!-- 4 -->
    <rect x="75" y="35" width="10" height="75" rx="2"/>
    <rect x="75" y="35" width="10" height="12" rx="2"/>
    <rect x="92" y="35" width="10" height="75" rx="2"/>
    <rect x="92" y="65" width="10" height="12" rx="2"/>
    
    <!-- 0 -->
    <rect x="110" y="35" width="10" height="75" rx="2"/>
    <rect x="110" y="35" width="10" height="10" rx="2"/>
    <rect x="110" y="100" width="10" height="10" rx="2"/>
    <rect x="120" y="35" width="10" height="75" rx="2"/>
    
    <!-- S -->
    <path d="M140 48 L147 48 Q152 48 152 53 L152 60 Q152 65 147 65 L143 65 Q138 65 138 70 L138 77 Q138 82 143 82 L147 82 Q152 82 152 87 L152 94 Q152 99 147 99 L140 99 Q135 99 135 94 L135 87 Q135 82 140 82 L144 82 Q149 82 149 77 L149 70 Q149 65 144 65 L140 65 Q135 65 135 60 L135 53 Q135 48 140 48 Z" rx="2"/>
  </g>
</svg>
